<svg xmlns:xlink="http://www.w3.org/1999/xlink"  data-v-76c247f8="" width="140" height="140" viewBox="0 0 140 140" fill="none" xmlns="http://www.w3.org/2000/svg" class=""><g clip-path="url(#clip0_610_5412)"><g clip-path="url(#clip1_610_5412)"><path fill-rule="evenodd" clip-rule="evenodd" d="M112.494 16C115.5 16 118.181 17.5313 119.725 20.1104L133.863 44.1284C135.569 47.1105 135.325 57.1851 133.213 59.8448L79.8313 119.325C75.525 124.645 67.6438 125.531 62.2 121.26C61.4688 120.696 60.8188 120.051 60.25 119.325L6.78751 59.8448C4.59376 57.1851 4.35001 47.0299 6.13751 44.1284L20.275 20.1104C21.8188 17.5313 24.5813 16 27.5063 16H112.494Z" fill="#3B3B3B"></path><path fill-rule="evenodd" clip-rule="evenodd" d="M103.637 31.3135C105.994 31.3135 108.106 32.4418 109.244 34.3762L120.294 52.2687C121.675 54.4448 121.431 57.2657 119.725 59.2L77.9625 106.833C74.55 110.782 68.4562 111.427 64.2312 108.284C63.6625 107.881 63.175 107.397 62.6875 106.833L21.0875 59.2C19.3813 57.1851 19.2188 54.4448 20.5188 52.2687L31.5688 34.3762C32.7063 32.5224 34.9 31.3135 37.175 31.3135H103.637ZM82.7562 68.6299L72.6 83.1374C72.1125 83.8627 70.2437 84.0239 69.5125 83.4597C69.35 83.3791 69.2687 83.218 69.1062 83.1374L58.1375 68.6299C56.5938 66.5344 53.5062 66.0508 51.3125 67.5821C49.1187 69.0329 48.6312 71.9344 50.175 74.0299L61.1437 88.5374C65.3687 93.6956 68.05 95.7911 70.8937 95.7911C74.0625 95.7911 76.7437 92.2448 79.75 88.5374L90.7187 74.0299C92.2625 71.9344 91.775 69.0329 89.5812 67.5821C87.3875 66.0508 84.3 66.5344 82.7562 68.6299Z" fill="url(#paint0_linear_610_5412)"></path></g></g><defs><linearGradient id="paint0_linear_610_5412" x1="70.4231" y1="31.3135" x2="70.4231" y2="110.276" gradientUnits="userSpaceOnUse"><stop stop-color="#FAE59F"></stop><stop offset="1" stop-color="#C4933F"></stop></linearGradient><clipPath id="clip0_610_5412"><rect width="140" height="140" fill="white"></rect></clipPath><clipPath id="clip1_610_5412"><rect width="130" height="108" fill="white" transform="translate(5 16)"></rect></clipPath></defs></svg>